G04 EAGLE Gerber RS-274X export*
G75*
%MOMM*%
%FSLAX34Y34*%
%LPD*%
%INTop Copper*%
%IPPOS*%
%AMOC8*
5,1,8,0,0,1.08239X$1,22.5*%
G01*
%ADD10C,1.916000*%
%ADD11P,1.979475X8X112.500000*%
%ADD12P,1.979475X8X202.500000*%
%ADD13C,1.828800*%
%ADD14C,2.032000*%
%ADD15C,2.016000*%


D10*
X435030Y76200D02*
X415870Y76200D01*
X415870Y101600D02*
X435030Y101600D01*
X435030Y127000D02*
X415870Y127000D01*
X415870Y152400D02*
X435030Y152400D01*
X435030Y177800D02*
X415870Y177800D01*
X415870Y203200D02*
X435030Y203200D01*
X435030Y228600D02*
X415870Y228600D01*
X415870Y254000D02*
X435030Y254000D01*
X435030Y279400D02*
X415870Y279400D01*
X415870Y304800D02*
X435030Y304800D01*
X435030Y330200D02*
X415870Y330200D01*
X415870Y355600D02*
X435030Y355600D01*
X435030Y381000D02*
X415870Y381000D01*
X415870Y406400D02*
X435030Y406400D01*
X435030Y431800D02*
X415870Y431800D01*
X282630Y431800D02*
X263470Y431800D01*
X263470Y406400D02*
X282630Y406400D01*
X282630Y381000D02*
X263470Y381000D01*
X263470Y355600D02*
X282630Y355600D01*
X282630Y330200D02*
X263470Y330200D01*
X263470Y304800D02*
X282630Y304800D01*
X282630Y279400D02*
X263470Y279400D01*
X263470Y254000D02*
X282630Y254000D01*
X282630Y228600D02*
X263470Y228600D01*
X263470Y203200D02*
X282630Y203200D01*
X282630Y177800D02*
X263470Y177800D01*
X263470Y152400D02*
X282630Y152400D01*
X282630Y127000D02*
X263470Y127000D01*
X263470Y101600D02*
X282630Y101600D01*
X282630Y76200D02*
X263470Y76200D01*
D11*
X381000Y406400D03*
X381000Y457200D03*
D12*
X190500Y266700D03*
X139700Y266700D03*
X190500Y520700D03*
X139700Y520700D03*
D13*
X194056Y50800D02*
X212344Y50800D01*
X212344Y76200D02*
X194056Y76200D01*
X194056Y203200D02*
X212344Y203200D01*
X212344Y228600D02*
X194056Y228600D01*
X194056Y101600D02*
X212344Y101600D01*
X212344Y127000D02*
X194056Y127000D01*
X194056Y177800D02*
X212344Y177800D01*
X212344Y152400D02*
X194056Y152400D01*
X136144Y228600D02*
X117856Y228600D01*
X117856Y203200D02*
X136144Y203200D01*
X136144Y177800D02*
X117856Y177800D01*
X117856Y152400D02*
X136144Y152400D01*
X136144Y127000D02*
X117856Y127000D01*
X117856Y101600D02*
X136144Y101600D01*
X136144Y76200D02*
X117856Y76200D01*
X117856Y50800D02*
X136144Y50800D01*
X194056Y304800D02*
X212344Y304800D01*
X212344Y330200D02*
X194056Y330200D01*
X194056Y457200D02*
X212344Y457200D01*
X212344Y482600D02*
X194056Y482600D01*
X194056Y355600D02*
X212344Y355600D01*
X212344Y381000D02*
X194056Y381000D01*
X194056Y431800D02*
X212344Y431800D01*
X212344Y406400D02*
X194056Y406400D01*
X136144Y482600D02*
X117856Y482600D01*
X117856Y457200D02*
X136144Y457200D01*
X136144Y431800D02*
X117856Y431800D01*
X117856Y406400D02*
X136144Y406400D01*
X136144Y381000D02*
X117856Y381000D01*
X117856Y355600D02*
X136144Y355600D01*
X136144Y330200D02*
X117856Y330200D01*
X117856Y304800D02*
X136144Y304800D01*
D14*
X67310Y101600D02*
X46990Y101600D01*
X46990Y127000D02*
X67310Y127000D01*
X67310Y152400D02*
X46990Y152400D01*
X46990Y76200D02*
X67310Y76200D01*
X67310Y50800D02*
X46990Y50800D01*
X46990Y266700D02*
X67310Y266700D01*
X67310Y292100D02*
X46990Y292100D01*
X46990Y317500D02*
X67310Y317500D01*
X67310Y241300D02*
X46990Y241300D01*
X46990Y215900D02*
X67310Y215900D01*
X67310Y431800D02*
X46990Y431800D01*
X46990Y457200D02*
X67310Y457200D01*
X67310Y482600D02*
X46990Y482600D01*
X46990Y406400D02*
X67310Y406400D01*
X67310Y381000D02*
X46990Y381000D01*
D15*
X400050Y494745D02*
X400050Y514905D01*
X425450Y514905D02*
X425450Y494745D01*
M02*
