M48
;GenerationSoftware,Autodesk,EAGLE,9.6.2*%
;CreationDate,2023-11-24T04:05:25Z*%
FMAT,2
ICI,OFF
METRIC,TZ,000.000
T5C0.813
T4C0.900
T3C1.000
T2C1.016
T1C1.778
%
G90
M71
T1
X42545Y5080
X27305Y5080
X27305Y45720
X42545Y45720
T2
X5715Y24130
X5715Y31750
X5715Y29210
X5715Y5080
X5715Y7620
X5715Y15240
X5715Y12700
X5715Y10160
X5715Y26670
X5715Y21590
X5715Y43180
X5715Y45720
X5715Y48260
X5715Y40640
X5715Y38100
T3
X42545Y50482
X40005Y50482
T4
X42545Y22860
X42545Y27940
X42545Y30480
X42545Y33020
X42545Y35560
X42545Y38100
X42545Y40640
X42545Y43180
X27305Y43180
X27305Y40640
X27305Y38100
X27305Y35560
X27305Y33020
X27305Y30480
X27305Y27940
X27305Y25400
X27305Y22860
X27305Y20320
X27305Y17780
X27305Y15240
X27305Y12700
X27305Y10160
X27305Y7620
X42545Y25400
X42545Y7620
X42545Y10160
X42545Y12700
X42545Y15240
X42545Y17780
X42545Y20320
T5
X12700Y15240
X12700Y12700
X12700Y10160
X12700Y7620
X12700Y5080
X20320Y30480
X20320Y33020
X20320Y45720
X20320Y48260
X20320Y35560
X20320Y38100
X20320Y43180
X20320Y40640
X12700Y48260
X12700Y45720
X20320Y22860
X12700Y40640
X12700Y38100
X12700Y35560
X12700Y33020
X12700Y30480
X20320Y20320
X20320Y7620
X20320Y5080
X13970Y52070
X19050Y52070
X20320Y10160
X13970Y26670
X19050Y26670
X38100Y45720
X38100Y40640
X20320Y12700
X20320Y17780
X20320Y15240
X12700Y22860
X12700Y20320
X12700Y17780
X12700Y43180
M30